<svg width="253" height="49" viewBox="0 0 253 49" fill="none" xmlns="http://www.w3.org/2000/svg">
<path d="M15.9411 32.2017L22.4829 13.4033H19.5504V12.6889H25.3027V13.4033H23.5356L14.4748 39.3827H11.3167L1.72946 13.4033H0V11.5H12.2942V13.4033H9.6248L15.9411 32.2017Z" fill="#2B2B2B"/>
<path d="M35.0212 31.6002V28.4044C35.0212 25.9732 34.8834 24.2061 34.6076 23.1033C34.357 21.9754 33.7554 21.4114 32.803 21.4114C32.2516 21.4114 31.8004 21.5743 31.4495 21.9002C31.1237 22.201 30.8855 22.7148 30.7352 23.4417C30.5096 24.5696 30.3968 26.2865 30.3968 28.5924V31.525C30.3968 34.257 30.472 35.8988 30.6224 36.4502C30.7978 37.0016 30.9733 37.4528 31.1487 37.8037C31.4244 38.4052 31.9633 38.706 32.7654 38.706C33.7429 38.706 34.3821 38.142 34.6828 37.0141C34.9084 36.2121 35.0212 34.4074 35.0212 31.6002ZM32.6902 39.3827C29.5571 39.3827 27.1885 38.5807 25.5844 36.9765C23.9803 35.3724 23.1782 33.079 23.1782 30.0963C23.1782 27.0886 24.0304 24.7826 25.7348 23.1785C27.4642 21.5493 29.883 20.7347 32.991 20.7347C36.099 20.7347 38.4175 21.4866 39.9464 22.9905C41.4753 24.4693 42.2398 26.7377 42.2398 29.7955C42.2398 36.187 39.0566 39.3827 32.6902 39.3827Z" fill="#2B2B2B"/>
<path d="M67.9757 39.3827C64.7424 39.3827 62.3112 38.5556 60.682 36.9013C59.0778 35.222 58.2758 32.9035 58.2758 29.9459C58.2758 26.9632 59.1781 24.6824 60.9827 23.1033C62.8124 21.5242 65.1309 20.7347 67.9381 20.7347C73.6278 20.7347 76.3598 23.592 76.1343 29.3068H65.532V30.7731C65.532 33.2294 65.8453 35.0842 66.4719 36.3374C67.0985 37.5906 68.1888 38.2172 69.7428 38.2172C72.6503 38.2172 74.5552 36.6632 75.4575 33.5552L76.1343 33.668C75.658 35.4727 74.7933 36.8763 73.5401 37.8789C72.3119 38.8814 70.4571 39.3827 67.9757 39.3827ZM65.5695 28.5548H69.442V26.7126C69.442 24.6824 69.3167 23.3038 69.0661 22.5769C68.8405 21.825 68.3643 21.449 67.6374 21.449C66.9356 21.449 66.4092 21.8501 66.0583 22.6521C65.7325 23.4291 65.5695 24.7826 65.5695 26.7126V28.5548Z" fill="#2B2B2B"/>
<path d="M19.1995 11.5L216.834 11.5L217.21 39.6334H216.533C215.48 37.1019 214.377 15.8721 213.224 14.9447C212.071 13.9923 90.9835 13.5161 88.7527 13.5161H87.4368V25.1335H88.7151C89.8932 25.1335 90.8832 24.6949 91.6853 23.8176C92.4874 22.9153 93.0513 21.7122 93.3771 20.2083H93.9411V31.337H93.3019C92.8508 29.4572 92.2367 28.1162 91.4597 27.3141C90.7078 26.5121 89.6676 26.111 88.3392 26.111H87.4368V38.1796H88.8655C91.1715 38.1796 93.1265 37.4904 94.7306 36.1118C96.3598 34.7333 97.4752 32.9662 98.0768 30.8106H98.8287L98.5279 39.0068H77.8872V38.1796H80.1054V13.5161H19.1995V11.5Z" fill="#2B2B2B"/>
<path d="M113.806 27.9157L118.243 21.7874H115.536V21.1106H121.138V21.7874H119.183L114.295 28.7052L120.423 38.33H122.378V39.0068H109.821V38.33H112.49L108.355 31.5626L104.069 38.33H106.55V39.0068H100.647V38.33H103.129L107.904 30.8106L102.189 21.7874H100.008V21.1106H112.716V21.7874H110.084L113.806 27.9157Z" fill="#2B2B2B"/>
<path d="M136.467 28.8932C136.467 26.3116 136.342 24.5821 136.091 23.7048C135.84 22.8025 135.352 22.3513 134.625 22.3513C133.898 22.3513 133.246 22.8276 132.67 23.78C132.093 24.7074 131.805 25.9606 131.805 27.5397V34.42C131.805 35.4977 132.018 36.4126 132.444 37.1645C132.87 37.9165 133.497 38.2924 134.324 38.2924C135.151 38.2924 135.715 37.741 136.016 36.6382C136.317 35.5353 136.467 33.6054 136.467 30.8482V28.8932ZM131.73 21.1106V24.0808C132.707 21.8501 134.437 20.7347 136.918 20.7347C139.074 20.7347 140.74 21.5117 141.919 23.0657C143.122 24.6197 143.723 26.9758 143.723 30.1339C143.723 33.292 143.072 35.6231 141.768 37.1269C140.49 38.6308 138.56 39.3827 135.978 39.3827C134.775 39.3827 133.873 39.2323 133.271 38.9316C132.67 38.6308 132.181 38.1671 131.805 37.5405V46.5261H156.585V47.9548H109.745V46.5261H124.812V21.7874H122.819V21.1106H131.73Z" fill="#2B2B2B"/>
<path d="M157.404 22.1634C156.477 22.1634 155.662 22.7649 154.961 23.968C154.259 25.1711 153.908 26.5998 153.908 28.2541V38.33H156.577V39.0068H144.847V38.33H146.915V21.7874H144.847V21.1106H153.908V24.7199C154.234 23.4417 154.86 22.4641 155.788 21.7874C156.715 21.0856 157.768 20.7347 158.946 20.7347C160.124 20.7347 161.076 21.073 161.803 21.7498C162.555 22.4015 162.931 23.3414 162.931 24.5696C162.931 25.7727 162.655 26.7001 162.104 27.3517C161.553 28.0034 160.7 28.3293 159.547 28.3293C158.419 28.3293 157.58 27.9533 157.028 27.2013C156.502 26.4494 156.439 25.4092 156.84 24.0808H158.194C158.82 22.8025 158.557 22.1634 157.404 22.1634Z" fill="#2B2B2B"/>
<path d="M173.166 39.3827C169.933 39.3827 167.502 38.5556 165.872 36.9013C164.268 35.222 163.466 32.9035 163.466 29.9459C163.466 26.9632 164.369 24.6824 166.173 23.1033C168.003 21.5242 170.321 20.7347 173.129 20.7347C178.818 20.7347 181.55 23.592 181.325 29.3068H170.722V30.7731C170.722 33.2294 171.036 35.0842 171.662 36.3374C172.289 37.5906 173.379 38.2172 174.933 38.2172C177.841 38.2172 179.746 36.6632 180.648 33.5552L181.325 33.668C180.849 35.4727 179.984 36.8763 178.731 37.8789C177.502 38.8814 175.648 39.3827 173.166 39.3827ZM170.76 28.5548H174.633V26.7126C174.633 24.6824 174.507 23.3038 174.257 22.5769C174.031 21.825 173.555 21.449 172.828 21.449C172.126 21.449 171.6 21.8501 171.249 22.6521C170.923 23.4291 170.76 24.7826 170.76 26.7126V28.5548Z" fill="#2B2B2B"/>
<path d="M183.162 39.3827V32.6529H183.613C184.265 34.8335 185.142 36.3625 186.245 37.2397C187.348 38.117 188.726 38.5556 190.38 38.5556C192.937 38.5556 194.215 37.741 194.215 36.1118C194.215 35.41 193.902 34.8836 193.275 34.5327C192.298 33.9813 191.045 33.5552 189.516 33.2544C187.811 32.8033 186.383 32.2017 185.23 31.4498C183.851 30.5475 183.162 29.1188 183.162 27.1637C183.162 25.2087 183.763 23.6547 184.966 22.5017C186.169 21.3237 187.774 20.7347 189.779 20.7347C191.007 20.7347 192.273 21.0229 193.576 21.5994C194.052 21.7999 194.416 21.9002 194.666 21.9002C194.917 21.9002 195.13 21.8125 195.306 21.637C195.481 21.4615 195.694 21.1357 195.945 20.6595H196.358V26.4118H195.907C194.629 23.1534 192.649 21.5242 189.967 21.5242C188.789 21.5242 187.911 21.7373 187.335 22.1634C186.758 22.5644 186.47 23.0782 186.47 23.7048C186.47 24.0808 186.558 24.3816 186.733 24.6072C186.909 24.8077 187.047 24.9581 187.147 25.0583C187.247 25.1586 187.41 25.2714 187.636 25.3967C187.861 25.497 188.049 25.5847 188.2 25.6599C188.35 25.71 188.576 25.7852 188.876 25.8855C189.202 25.9857 189.44 26.0484 189.591 26.0734C191.295 26.4995 192.523 26.8755 193.275 27.2013C194.027 27.5021 194.742 27.8781 195.418 28.3293C196.797 29.2817 197.486 30.8232 197.486 32.9537C197.486 35.0591 196.86 36.6632 195.606 37.7661C194.353 38.8439 192.636 39.3827 190.456 39.3827C188.902 39.3827 187.398 39.0193 185.944 38.2924C185.643 38.0919 185.405 37.9917 185.23 37.9917C184.678 37.9917 184.139 38.4553 183.613 39.3827H183.162Z" fill="#2B2B2B"/>
<path d="M199.464 39.3827V32.6529H199.915C200.566 34.8335 201.444 36.3625 202.546 37.2397C203.649 38.117 205.028 38.5556 206.682 38.5556C209.239 38.5556 210.517 37.741 210.517 36.1118C210.517 35.41 210.204 34.8836 209.577 34.5327C208.6 33.9813 207.346 33.5552 205.817 33.2544C204.113 32.8033 202.684 32.2017 201.531 31.4498C200.153 30.5475 199.464 29.1188 199.464 27.1637C199.464 25.2087 200.065 23.6547 201.268 22.5017C202.471 21.3237 204.075 20.7347 206.081 20.7347C207.309 20.7347 208.574 21.0229 209.878 21.5994C210.354 21.7999 210.718 21.9002 210.968 21.9002C211.219 21.9002 211.432 21.8125 211.607 21.637C211.783 21.4615 211.996 21.1357 212.246 20.6595H212.66V26.4118H212.209C210.931 23.1534 208.95 21.5242 206.269 21.5242C205.09 21.5242 204.213 21.7373 203.637 22.1634C203.06 22.5644 202.772 23.0782 202.772 23.7048C202.772 24.0808 202.86 24.3816 203.035 24.6072C203.211 24.8077 203.349 24.9581 203.449 25.0583C203.549 25.1586 203.712 25.2714 203.938 25.3967C204.163 25.497 204.351 25.5847 204.501 25.6599C204.652 25.71 204.877 25.7852 205.178 25.8855C205.504 25.9857 205.742 26.0484 205.893 26.0734C207.597 26.4995 208.825 26.8755 209.577 27.2013C210.329 27.5021 211.043 27.8781 211.72 28.3293C213.099 29.2817 213.788 30.8232 213.788 32.9537C213.788 35.0591 213.161 36.6632 211.908 37.7661C210.655 38.8439 208.938 39.3827 206.757 39.3827C205.203 39.3827 203.699 39.0193 202.246 38.2924C201.945 38.0919 201.707 37.9917 201.531 37.9917C200.98 37.9917 200.441 38.4553 199.915 39.3827H199.464Z" fill="#2B2B2B"/>
<path d="M45.1712 33.6304V21.7874V21.1106V1.72946L52.1642 0V21.1106V21.7874V34.4576C52.1642 35.6356 52.277 36.5003 52.5026 37.0517C52.7532 37.6032 53.2545 37.8789 54.0065 37.8789C54.7584 37.8789 55.4101 37.5029 55.9615 36.751C56.538 35.999 56.9139 34.9714 57.0894 33.668L57.7285 33.7432C57.528 35.4727 56.9766 36.8512 56.0743 37.8789C55.172 38.8814 53.6806 39.3827 51.6003 39.3827C49.5199 39.3827 47.9283 38.9692 46.8254 38.142C45.7226 37.3149 45.1712 35.811 45.1712 33.6304Z" fill="#2B2B2B"/>
<path d="M232.281 28.4699L229.8 24.6613M229.8 24.6613L225.168 17.5521C223.514 15.0131 219.539 17.8194 221.094 20.2061L228.207 31.1239C221.841 29.8457 215.314 36.1951 232.037 40.7081C240.804 43.0742 254.198 35.1678 248.74 26.789L244.605 20.4414C242.289 16.8868 238.429 19.9802 240.48 23.1286L238.892 20.6912C236.651 18.1727 232.8 20.2476 235.645 24.6147L233.925 21.9741C232.767 20.1968 228.747 21.1521 229.8 24.6613Z" stroke="#2B2B2B" stroke-width="2"/>
</svg>
